<?xml version="1.0" encoding="utf-8"?>
<!-- Svg Vector Icons : http://www.onlinewebfonts.com/icon -->
<!DOCTYPE svg PUBLIC "-//W3C//DTD SVG 1.1//EN" "http://www.w3.org/Graphics/SVG/1.1/DTD/svg11.dtd">
<svg version="1.1" xmlns="http://www.w3.org/2000/svg" xmlns:xlink="http://www.w3.org/1999/xlink" x="0px" y="0px" viewBox="0 0 1000 1000" enable-background="new 0 0 1000 1000" xml:space="preserve">
<metadata> Svg Vector Icons : http://www.onlinewebfonts.com/icon </metadata>
<g><g fill="#fff" transform="translate(0.000000,511.000000) scale(0.100000,-0.100000)"><path d="M473.9,3526.2c-241.6-107.7-366-301.4-368.4-559.8c-2.4-198.6,50.2-315.8,196.2-447.4c306.2-275.1,782.3-184.2,952.2,184.2C1490.7,3208,973.9,3753.4,473.9,3526.2z"/><path d="M2253.9,3351.5c-40.7-19.1-81.3-50.2-90.9-74.2c-7.2-21.5-14.4-165.1-14.4-318.2c2.4-301.4,14.4-344.5,129.2-387.6c43.1-16.8,1253.6-23.9,3737-23.9c4000.1,0,3808.7-7.2,3861.3,131.6c14.3,35.9,23.9,165.1,23.9,289.5c0,263.2-33.5,349.3-145.9,390c-55,19.1-1122.1,26.3-3751.3,26.3C2971.6,3382.6,2316.1,3377.8,2253.9,3351.5z"/><path d="M579.2,707.9c-555-138.8-655.5-866-155.5-1136.4c234.5-124.4,509.6-86.1,705.8,100.5c129.2,124.4,181.8,248.8,181.8,435.4c0,186.6-52.6,311-181.8,435.4C983.5,681.6,753.8,751,579.2,707.9z"/><path d="M2210.8,463.9c-62.2-47.9-62.2-52.6-62.2-346.9c0-284.7,2.4-301.4,59.8-356.5l57.4-59.8h3746.5h3748.9l69.3,69.4c69.4,69.4,69.4,74.2,69.4,337.3c0,263.2,0,268-69.4,337.3l-69.3,69.4H6017.1H2275.4L2210.8,463.9z"/><path d="M502.6-2172.5C395-2206,220.3-2366.3,155.7-2486c-71.8-134-71.8-392.3,0-528.7c236.8-452.2,856.5-461.7,1088.5-14.4C1497.9-2545.8,1029-2002.7,502.6-2172.5z"/><path d="M2253.9-2366.3c-40.7-19.1-81.3-50.2-90.9-74.2c-7.2-21.5-14.4-165.1-14.4-320.6c0-270.3,2.4-282.3,62.2-339.7l62.2-57.4l3705.8-7.2c4043.1-4.8,3844.6-12,3897.2,126.8c31.1,81.3,31.1,492.8,0,571.8c-52.6,141.2,179.4,134-3856.5,134C2974-2335.2,2316.1-2340,2253.9-2366.3z"/></g></g>
</svg>
