<svg width="17px" height="16px" viewBox="0 0 17 16" version="1.1" xmlns="http://www.w3.org/2000/svg" xmlns:xlink="http://www.w3.org/1999/xlink">
    <!-- Generator: Sketch 42 (36781) - http://www.bohemiancoding.com/sketch -->
    <desc>Created with Sketch.</desc>
    <defs></defs>
    <path d="M7.44088603,2.71890818 C7.91227812,2.26117602 7.91227812,1.52018095 7.44088603,1.06244879 C7.26400813,0.891098324 7.26400813,0.613284321 7.44088603,0.44193385 C7.61776394,0.27058338 7.90453968,0.27058338 8.08141759,0.44193385 C8.90499453,1.24231221 8.90499453,2.5372919 8.08141759,3.33767026 C7.6100255,3.79540241 7.6100255,4.53639749 8.08141759,4.99412964 C8.19583753,5.10497396 8.2405236,5.26653308 8.198643,5.41794923 C8.15676239,5.56936539 8.03467777,5.68763487 7.87837722,5.7282067 C7.72207667,5.76877854 7.55530597,5.72548891 7.44088603,5.61464459 C6.61730909,4.81426623 6.61730909,3.51928654 7.44088603,2.71890818 L7.44088603,2.71890818 Z M10.1550028,3.3727276 C9.51634543,3.99266128 9.51634543,4.99646378 10.1550028,5.61639745 C10.3318807,5.78774792 10.6186564,5.78774792 10.7955343,5.61639745 C10.9724123,5.44504698 10.9724123,5.16723298 10.7955343,4.99588251 C10.5100563,4.71819677 10.5100563,4.26917542 10.7955343,3.99148968 L10.7955343,3.99148968 C11.1027041,3.6939826 11.2752757,3.29043825 11.2752757,2.86965475 C11.2752757,2.44887125 11.1027041,2.0453269 10.7955343,1.74781982 C10.6811144,1.6369755 10.5143437,1.59368587 10.3580432,1.6342577 C10.2017426,1.67482954 10.079658,1.79309902 10.0377774,1.94451518 C9.99589678,2.09593133 10.0405829,2.25749045 10.1550028,2.36833476 C10.2925664,2.50148625 10.3698587,2.68214642 10.3698587,2.87053118 C10.3698587,3.05891594 10.2925664,3.23957612 10.1550028,3.3727276 L10.1550028,3.3727276 Z M4.72676927,5.61639745 C4.84118921,5.72724178 5.00795991,5.77053142 5.16426047,5.72995958 C5.32056102,5.68938775 5.44264565,5.57111826 5.48452625,5.41970211 C5.52640686,5.26828595 5.48172078,5.10672683 5.36730083,4.99588251 C5.08182283,4.71819677 5.08182283,4.26917542 5.36730083,3.99148968 L5.36730083,3.99148968 C6.00595819,3.371556 6.00595819,2.3677535 5.36730083,1.74781982 C5.19042292,1.57646935 4.90364718,1.57646935 4.72676927,1.74781982 C4.54989137,1.91917029 4.54989137,2.19698429 4.72676927,2.36833476 C5.01224727,2.64602051 5.01224727,3.09504186 4.72676927,3.3727276 L4.72676927,3.3727276 C4.08931484,3.99245889 4.08931484,4.9949133 4.72676927,5.61464459 L4.72676927,5.61639745 Z M0.26838014,15.4324531 C0.267375671,15.191112 0.467993786,14.9944122 0.717114111,14.9924834 L3.87815543,14.9924834 C2.91552038,14.3887668 2.19277984,13.4865372 1.82809257,12.4332975 C1.79914199,12.3479913 1.77139769,12.2615165 1.74485966,12.1738732 C1.34071057,10.7959543 1.08780176,9.3805633 0.990335198,7.9512164 C0.971171364,7.62249098 1.09219039,7.30056402 1.32507627,7.06075992 C1.56054084,6.82005489 1.88746696,6.68323631 2.22978185,6.68214064 L12.4059103,6.68214064 C12.7482252,6.68323631 13.0751513,6.82005489 13.3106159,7.06075992 C13.5436873,7.30045327 13.6647364,7.62246021 13.6453569,7.9512164 C13.6272628,8.25270953 13.5983123,8.56296701 13.5603146,8.87673021 L13.8281075,8.87673021 C14.4961584,8.87655751 15.1271023,9.17430928 15.5387609,9.68401288 C15.9504196,10.1937165 16.0969605,10.8586236 15.9360715,11.4867493 C15.6946464,12.4224194 14.8272951,13.0791556 13.8317263,13.0801055 L12.5217126,13.0801055 C12.1066302,13.8572063 11.4899124,14.5162689 10.732205,14.9924834 L13.8281075,14.9924834 C14.077935,14.9924834 14.2804603,15.1886798 14.2804603,15.4307002 C14.2804603,15.6727206 14.077935,15.868917 13.8281075,15.868917 L0.717114111,15.868917 C0.468700952,15.8669917 0.26837219,15.6713582 0.26838014,15.4307002 L0.26838014,15.4324531 Z M12.8835948,12.2036719 L13.8299169,12.2036719 C14.4102526,12.2028337 14.9157595,11.8200222 15.0566977,11.2746524 C15.1500484,10.9088629 15.064733,10.521805 14.8253011,10.2248547 C14.5858692,9.92790436 14.2188734,9.75399304 13.8299169,9.75316375 L13.4390841,9.75316375 C13.3078751,10.5703619 13.126614,11.3792773 12.8962607,12.175626 L12.8835948,12.2036719 Z M6.79673565,14.9556732 L7.83714708,14.9556732 C9.75521114,14.9644559 11.4520385,13.7531587 12.0114587,11.9757992 L12.0241245,11.9354833 C12.410992,10.62 12.6535882,9.26866338 12.747889,7.90388899 C12.7530234,7.81625272 12.7202407,7.73050562 12.6574184,7.66725193 C12.5919993,7.60070844 12.5007506,7.5638233 12.4059103,7.56558564 L2.23340067,7.56558564 C2.1389126,7.56477001 2.04837708,7.60226762 1.98370193,7.6690048 C1.92087966,7.73225848 1.88809702,7.81800558 1.89323137,7.90564185 C1.9875322,9.27041625 2.23012839,10.6217528 2.61699584,11.9372361 C2.63870878,12.0126094 2.66223112,12.0862298 2.68756288,12.1580974 C3.29181647,13.8510528 4.9478012,14.9784677 6.79673565,14.9556732 L6.79673565,14.9556732 Z" id="Shape" stroke="none" fill="#000000" fill-rule="nonzero"></path>
</svg>