<?xml version="1.0" encoding="UTF-8"?>
<svg width="40px" height="40px" viewBox="0 0 40 40" version="1.1" xmlns="http://www.w3.org/2000/svg" xmlns:xlink="http://www.w3.org/1999/xlink">
    <!-- Generator: sketchtool 42 (36781) - http://www.bohemiancoding.com/sketch -->
    <title>26EEB31A-3032-4912-8ECC-E39452C90404</title>
    <desc>Created with sketchtool.</desc>
    <defs></defs>
    <g id="Symbols" stroke="none" stroke-width="1" fill="none" fill-rule="evenodd" opacity="0.600000024">
        <g id="icon_bag" fill-rule="nonzero" fill="#777777">
            <path d="M28.1207158,9.59633028 L26.8963431,9.59633028 L26.8963431,8.51743119 C26.8963431,7.13027523 25.5495332,6 23.89663,6 L17.1013616,6 C15.4484585,6 14.1016485,7.13027523 14.1016485,8.51743119 L14.1016485,9.59633028 L12.8772758,9.59633028 C11.2855913,9.59633028 10,10.6752294 10,12.0110092 L10,30.3522936 C10,31.6880734 11.2855913,32.7669725 12.8772758,32.7669725 L13.7343367,32.7669725 L13.7343367,33.4862385 C13.7343367,33.7944954 13.9792112,34 14.346523,34 C14.7138349,34 14.9587094,33.7944954 14.9587094,33.4862385 L14.9587094,32.7669725 L26.2841568,32.7669725 L26.2841568,33.4862385 C26.2841568,33.7944954 26.5290313,34 26.8963431,34 C27.2636549,34 27.5085295,33.7944954 27.5085295,33.4862385 L27.5085295,32.7669725 L28.1207158,32.7669725 C29.7124003,32.7669725 30.9979916,31.6880734 30.9979916,30.3522936 L30.9979916,12.0110092 C31.0592103,10.6752294 29.7124003,9.59633028 28.1207158,9.59633028 Z M15.3260212,8.51743119 C15.3260212,7.69541284 16.1218634,7.02752294 17.1013616,7.02752294 L23.9578487,7.02752294 C24.9373468,7.02752294 25.7331891,7.69541284 25.7331891,8.51743119 L25.7331891,9.59633028 L15.3260212,9.59633028 L15.3260212,8.51743119 Z M29.8348376,30.3522936 C29.8348376,31.1229358 29.100214,31.7394495 28.1819344,31.7394495 L12.9384945,31.7394495 C12.0202149,31.7394495 11.2855913,31.1229358 11.2855913,30.3522936 L11.2855913,12.0110092 C11.2855913,11.240367 12.0202149,10.6238532 12.9384945,10.6238532 L14.7750535,10.6238532 L26.3453754,10.6238532 L28.1819344,10.6238532 C29.100214,10.6238532 29.8348376,11.240367 29.8348376,12.0110092 L29.8348376,30.3522936 Z" id="Shape"></path>
        </g>
    </g>
</svg>