<?xml version="1.0" encoding="UTF-8" standalone="no"?>
<svg width="20px" height="25px" viewBox="0 0 20 25" version="1.1" xmlns="http://www.w3.org/2000/svg" xmlns:xlink="http://www.w3.org/1999/xlink" xmlns:sketch="http://www.bohemiancoding.com/sketch/ns">
    <!-- Generator: Sketch 3.3.2 (12043) - http://www.bohemiancoding.com/sketch -->
    <title>Artboard 1</title>
    <desc>Created with Sketch.</desc>
    <defs></defs>
    <g id="Page-1" stroke="none" stroke-width="1" fill="none" fill-rule="evenodd" sketch:type="MSPage">
        <g id="Artboard-1" sketch:type="MSArtboardGroup" fill="#000000">
            <g id="parking" sketch:type="MSLayerGroup" transform="translate(0.000000, 2.000000)">
                <path d="M0.833333333,3.32504418 L0.833333333,3.32504418 L0.833333333,16.6749558 C0.833333333,18.0521748 1.94823326,19.1666667 3.32504418,19.1666667 L16.6749558,19.1666667 C18.0521748,19.1666667 19.1666667,18.0517667 19.1666667,16.6749558 L19.1666667,3.32504418 C19.1666667,1.94782518 18.0517667,0.833333333 16.6749558,0.833333333 L3.32504418,0.833333333 C1.94782518,0.833333333 0.833333333,1.94823326 0.833333333,3.32504418 L0.833333333,3.32504418 Z M0,3.32504418 C0,1.48867299 1.48691107,0 3.32504418,0 L16.6749558,0 C18.511327,0 20,1.48691107 20,3.32504418 L20,16.6749558 C20,18.511327 18.5130889,20 16.6749558,20 L3.32504418,20 C1.48867299,20 0,18.5130889 0,16.6749558 L0,3.32504418 L0,3.32504418 Z" id="Shape" sketch:type="MSShapeGroup"></path>
                <path d="M2,3.99406028 C2,2.8927712 2.89451376,2 3.99406028,2 L16.0059397,2 C17.1072288,2 18,2.89451376 18,3.99406028 L18,16.0059397 C18,17.1072288 17.1054862,18 16.0059397,18 L3.99406028,18 C2.8927712,18 2,17.1054862 2,16.0059397 L2,3.99406028 Z M15,7.94166667 C15,9.163895 14.6105516,10.1263854 13.831643,10.8291667 C13.0527344,11.531948 11.9269851,11.8833333 10.4543611,11.8833333 L7.67951318,11.8833333 L7.67951318,16.0533333 L6,16.0533333 L6,4 L10.4543611,4 C11.9269851,4 13.0527344,4.35138538 13.831643,5.05416667 C14.6105516,5.75694796 15,6.71943833 15,7.94166667 Z M7.70001221,10.45 L10.3583456,10.45 C11.3361283,10.45 12.0725098,10.2330577 12.5675123,9.79916667 C13.0625148,9.36527561 13.3100123,8.75722613 13.3100123,7.975 C13.3100123,7.19277387 13.0625148,6.58472439 12.5675123,6.15083333 C12.0725098,5.71694227 11.3361283,5.5 10.3583456,5.5 L7.70001221,5.5 L7.70001221,10.45 Z" id="Rectangle-7-Copy" sketch:type="MSShapeGroup"></path>
            </g>
        </g>
    </g>
</svg>