<?xml version="1.0" encoding="UTF-8" standalone="no"?>
<svg width="26px" height="25px" viewBox="0 0 26 25" version="1.1" xmlns="http://www.w3.org/2000/svg" xmlns:xlink="http://www.w3.org/1999/xlink" xmlns:sketch="http://www.bohemiancoding.com/sketch/ns">
    <!-- Generator: Sketch 3.3.2 (12043) - http://www.bohemiancoding.com/sketch -->
    <title>Artboard 1</title>
    <desc>Created with Sketch.</desc>
    <defs></defs>
    <g id="Page-1" stroke="none" stroke-width="1" fill="none" fill-rule="evenodd" sketch:type="MSPage">
        <g id="Artboard-1" sketch:type="MSArtboardGroup" fill="#000000">
            <g id="Group" sketch:type="MSLayerGroup" transform="translate(0.000000, 1.000000)">
                <path d="M0,21.5 L0,11 L2,11 L13,11 L13,21.996732 L2,23 L0,21.5 Z M2,12 L3,12 L3,22 L2,22 L2,12 Z M10.6754084,14.1074328 C10.9099115,14.4732004 10.9931996,15.033331 11.02,15.5 L10.055192,15.5 C10.0082914,15.0017993 9.85380593,14.7134782 9.51545143,14.4233867 C9.17709693,14.1332952 8.54600712,14 8.00999999,14 C7.33329099,14 6.92794293,14.0358084 6.54268781,14.5182432 C6.15743268,15.0006781 5.96480801,15.6612571 5.96480801,16.5 C5.96480801,17.3387429 6.15575769,17.9993219 6.53766277,18.4817568 C6.91956785,18.9641916 7.34669117,19 8.00999999,19 C8.53930703,19 9.25955845,18.7781546 9.60796309,18.4817567 C9.95636772,18.1853588 9.98149099,18.0608134 10.055192,17.55 L11.02,17.5500002 C10.946299,18.3067607 10.7870813,18.9571234 10.2711744,19.3954139 C9.75526757,19.8337044 8.84751113,20 8.00999999,20 C7.37349152,20 6.79983238,19.919447 6.33417618,19.6388149 C5.86851999,19.3581829 5.62813148,19.0083359 5.37687814,18.4817567 C5.1256248,17.9551775 5,17.2189225 5,16.5 C5,15.7810775 5.1256248,15.0448224 5.37687814,14.5182432 C5.62813148,13.991664 5.8618199,13.5880645 6.33417618,13.3074324 C6.80653247,13.0268004 7.36679143,13 8.00999999,13 C8.57280748,13 9.30708452,13.1024765 9.72584009,13.3074324 C10.1445957,13.5123884 10.4409052,13.7416652 10.6754084,14.1074328 Z" id="Rectangle-8-Copy-3" sketch:type="MSShapeGroup"></path>
                <path d="M12.0227273,21.3582888 L12.0227273,10.9607843 L14.9413251,10.9607843 L25.9772728,10.9607843 L25.9772728,21.996732 L14.9413251,23 L12.0227273,21.3582888 Z M13.0227273,12 L15.0227273,12 L15.0227273,22 L13.0227273,21 L13.0227273,12 Z M16.0227273,12 L25.0000003,12 L25.0000003,21 L16.0227273,22 L16.0227273,12 Z M21.8674812,13.4768258 C22.2465558,13.7947113 22.4360902,14.2289298 22.4360902,14.7794944 C22.4360902,15.1727548 22.3421062,15.5086597 22.1541353,15.7872191 C21.9661645,16.0657785 21.690478,16.2738757 21.3270677,16.4115169 L21.3270677,16.4311798 C21.7280722,16.5294949 22.0382195,16.7212064 22.2575188,17.0063202 C22.4768181,17.291434 22.5864662,17.6470016 22.5864662,18.0730337 C22.5864662,18.6629243 22.3890997,19.1315526 21.9943609,19.4789326 C21.5996221,19.8263126 21.0545148,20 20.3590226,20 L18,20 L18,13 L20.1804511,13 C20.9260689,13 21.4884066,13.1589404 21.8674812,13.4768258 Z M18.8646617,16.0575843 L20.1146617,16.0575843 C21.0921102,16.0575843 21.5808271,15.6741611 21.5808271,14.9073034 C21.5808271,14.5271517 21.4664798,14.2420421 21.237782,14.0519663 C21.0090841,13.8618904 20.6472456,13.7668539 20.1522556,13.7668539 L18.8646617,13.7668539 L18.8646617,16.0575843 Z M18.8646617,19.2331461 L20.2368421,19.2331461 C21.2080249,19.2331461 21.693609,18.8300602 21.693609,18.0238764 C21.693609,17.2176926 21.1672985,16.8146067 20.1146617,16.8146067 L18.8646617,16.8146067 L18.8646617,19.2331461 Z" id="Rectangle-8-Copy-5" sketch:type="MSShapeGroup"></path>
                <path d="M5,1.63636364 L5,11 L8.00000007,11 L19,11 L19,1 L8.00000007,0 L5,1.63636364 Z M6,11 L8,11 L8,1 L6,2 L6,11 Z M9,10 L18,10 L18,2 L9,1 L9,10 Z M11.838806,7 L11,9 L10,9 L12.8208955,2 L14.1268657,2 L16.958209,9 L16,9 L15.119403,7 L11.838806,7 Z M14.5656716,5.48033708 C14.1407939,4.37920798 13.782091,3.42884295 13.4895522,2.62921348 L13.4686567,2.62921348 C13.1761179,3.42884295 12.8174151,4.37920798 12.3925373,5.48033708 L12.141791,6 L14.8059701,6 L14.5656716,5.48033708 Z" id="Rectangle-8-Copy-4" sketch:type="MSShapeGroup"></path>
            </g>
        </g>
    </g>
</svg>