<?xml version="1.0" encoding="UTF-8" standalone="no"?>
<svg width="32px" height="25px" viewBox="0 0 32 25" version="1.1" xmlns="http://www.w3.org/2000/svg" xmlns:xlink="http://www.w3.org/1999/xlink" xmlns:sketch="http://www.bohemiancoding.com/sketch/ns">
    <!-- Generator: Sketch 3.3.2 (12043) - http://www.bohemiancoding.com/sketch -->
    <title>Artboard 1</title>
    <desc>Created with Sketch.</desc>
    <defs></defs>
    <g id="Page-1" stroke="none" stroke-width="1" fill="none" fill-rule="evenodd" sketch:type="MSPage">
        <g id="Artboard-1" sketch:type="MSArtboardGroup" fill="#000000">
            <path d="M23.9775455,22 L0,22 L0,23 L24.9887728,23 C25.1066259,23.1165447 25.2167985,23.2254941 25.3145788,23.3221887 C25.5430525,23.5481258 25.7087402,23.690979 26.048645,23.7711182 C26.3885498,23.8512573 26.6156904,23.7537239 26.9235356,23.6305858 C28.2823571,23.0870572 31,22 31,22 C31,22 31.6623535,21.4743652 31.3984375,20.9017944 C31.1345215,20.3292236 30.5,20.5 30.5,20.5 L26.5,21.0333076 C26.5,21.0333076 24.2590825,18.7737301 23.1386237,17.6439414 C22.9257491,17.4292943 22.8949585,17.1960461 22.3903198,17.1109625 C21.8856812,17.0258789 21.7047687,17.073975 21.3071531,17.1109625 C14.5381021,17.7406417 1.00000001,19 1.00000001,19 C1.00000001,19 3.56987517e-09,18.9999999 5.0674771e-09,20 C6.56507965e-09,21.0000001 1.00000001,21.0333076 1.00000001,21.0333076 L22.9999999,21.0333076 C22.9999999,21.0333076 23.4455614,21.4739222 23.9775455,22 L23.9775455,22 Z M17.5,8 C18.8807119,8 20,6.88071187 20,5.5 C20,4.11928813 18.8807119,3 17.5,3 C16.1192881,3 15,4.11928813 15,5.5 C15,6.88071187 16.1192881,8 17.5,8 Z M27.5,20 C28.8807119,20 30,18.8807119 30,17.5 C30,16.1192881 28.8807119,15 27.5,15 C26.1192881,15 25,16.1192881 25,17.5 C25,18.8807119 26.1192881,20 27.5,20 Z M9.41830371,17.115104 L14.7591344,16.797903 L15.7959497,12.9413016 C15.7959497,12.9413016 16.8541963,14.4067772 18.1973574,15.3008021 C19.7757666,16.3514112 21.7030796,16.8067863 22.1108339,16.0314919 C22.8655703,14.596454 20.3661655,14.8783829 18.6029637,12.7368522 C16.8397619,10.5953216 15.6511686,8.18578108 15.6511686,8.18578108 C15.6511686,8.18578108 14.1008851,7.03761122 12.9171934,7.99350478 C11.7335017,8.94939834 9.41830371,17.115104 9.41830371,17.115104 Z" id="spa" sketch:type="MSShapeGroup"></path>
        </g>
    </g>
</svg>