<?xml version="1.0" encoding="UTF-8" standalone="no"?>
<svg width="30px" height="25px" viewBox="0 0 30 25" version="1.1" xmlns="http://www.w3.org/2000/svg" xmlns:xlink="http://www.w3.org/1999/xlink" xmlns:sketch="http://www.bohemiancoding.com/sketch/ns">
    <!-- Generator: Sketch 3.3.2 (12043) - http://www.bohemiancoding.com/sketch -->
    <title>Artboard 1</title>
    <desc>Created with Sketch.</desc>
    <defs></defs>
    <g id="Page-1" stroke="none" stroke-width="1" fill="none" fill-rule="evenodd" sketch:type="MSPage">
        <g id="Artboard-1" sketch:type="MSArtboardGroup">
            <g id="pool" sketch:type="MSLayerGroup" transform="translate(0.000000, 1.000000)">
                <path d="M5.5,15 L15.5,11.0000002 C15.5,11.0000002 15.5,11.0000002 13.9565334,7.0000002 C13.0715911,4.70661118 15.5,3.49999996 15.5,3.49999996 C15.5,3.49999996 18.229082,1.90660068 20.0115733,1.00175489 C20.3410489,0.834503258 21.7146225,0.233572858 22.2755604,1.45381796 C22.8364983,2.67406306 21.5,3.5 21.5,3.5 L17.5,6.0000002 L22,15.0000002 C22,15.0000002 19,17 15,15 C12,17 5.5,15 5.5,15 Z M24.5,13 C26.1568542,13 27.5,11.6568542 27.5,10 C27.5,8.34314575 26.1568542,7 24.5,7 C22.8431458,7 21.5,8.34314575 21.5,10 C21.5,11.6568542 22.8431458,13 24.5,13 Z" id="Path-18" fill="#000000" sketch:type="MSShapeGroup"></path>
                <path d="M1,17.5 C1,17.5 4.5,20.5 8.00000001,17.5 C11.5,20.5 15,17.5 15,17.5 C15,17.5 18.5,20.5 22,17.5 C25.5,20.5 29,17.5 29,17.5" id="Path-40-Copy-5" stroke="#000000" stroke-width="1.3" sketch:type="MSShapeGroup"></path>
                <path d="M6.5,21.5 C6.5,21.5 10.5,24.5 14.5,21.5 C18.5,24.5 22.5,21.5 22.5,21.5" id="Path-40-Copy-4" stroke="#000000" stroke-width="1.3" sketch:type="MSShapeGroup"></path>
            </g>
        </g>
    </g>
</svg>