<?xml version="1.0" encoding="UTF-8" standalone="no"?>
<svg width="30px" height="25px" viewBox="0 0 30 25" version="1.1" xmlns="http://www.w3.org/2000/svg" xmlns:xlink="http://www.w3.org/1999/xlink" xmlns:sketch="http://www.bohemiancoding.com/sketch/ns">
    <!-- Generator: Sketch 3.3.2 (12043) - http://www.bohemiancoding.com/sketch -->
    <title>Artboard 1</title>
    <desc>Created with Sketch.</desc>
    <defs></defs>
    <g id="Page-1" stroke="none" stroke-width="1" fill="none" fill-rule="evenodd" sketch:type="MSPage">
        <g id="Artboard-1" sketch:type="MSArtboardGroup">
            <g id="aquapark" sketch:type="MSLayerGroup" transform="translate(0.000000, -4.000000)">
                <path d="M5.71698125,16.3739646 C5.71698125,16.3739646 9.04816271,16.3739646 11.9240831,16.3739646 C12.3148449,16.3739646 14.0836734,16.7462914 15.5267615,18.5407245 C16.8084798,20.1344993 16.9857725,20.2056154 18.4877629,19.9413111 C20.4201102,19.6012771 18.9801669,16.3739646 17.5422359,15.8823356 C15.6733551,15.2433648 14.6107618,15.219053 14.2557996,15.219053 L5.71698125,15.219053 C5.16023318,15.219053 4.95898772,15.6959051 4.95898772,15.6959051 C4.95898772,15.6959051 5.15753919,16.3739646 5.71698125,16.3739646 Z M5.99744807,14.3739646 L15.4725385,14.3739646 C15.5016187,14.3739646 18.2033833,14.3739646 19.5128735,16.3739646 C20.8223637,18.3739646 20.8503865,20.4869803 18.3883675,20.9211009 C15.115552,21.498187 15.2222556,18.3739646 12.7547282,18.3131356 C10.2872008,18.2523066 5.99744807,18.3739646 5.99744807,18.3739646 C4.88964293,18.3739646 3.99158941,17.486235 3.99158941,16.3739646 C3.99158941,15.2693951 4.88864954,14.3739646 5.99744807,14.3739646 Z" id="Shape-Copy-2" fill="#000000" sketch:type="MSShapeGroup" transform="translate(12.193446, 17.683077) rotate(10.000000) translate(-12.193446, -17.683077) "></path>
                <path d="M5.74095063,10.1851527 L16.7409506,10.1851527 C17.2976987,10.1851527 17.2409506,9.68515275 17.2409506,9.68515275 C17.2409506,9.68515275 17.3003927,9.18515275 16.7409506,9.18515275 L5.74095063,9.18515275 C5.18420255,9.18515275 5.24095063,9.68515275 5.24095063,9.68515275 C5.24095063,9.68515275 5.18150857,10.1851527 5.74095063,10.1851527 Z M6.24680929,8.18515275 L16.235092,8.18515275 C17.3428971,8.18515275 18.2409506,9.07288239 18.2409506,10.1851527 C18.2409506,11.2897222 17.3438905,12.1851527 16.235092,12.1851527 L6.24680929,12.1851527 C5.13900414,12.1851527 4.24095063,11.2974231 4.24095063,10.1851527 C4.24095063,9.08058325 5.13801075,8.18515275 6.24680929,8.18515275 Z" id="Shape-Copy-3" fill="#000000" sketch:type="MSShapeGroup" transform="translate(11.240951, 10.185153) rotate(10.000000) translate(-11.240951, -10.185153) "></path>
                <path d="M6.30462829,13.5464697 L13.973164,12.0187697 L16.5493001,12.9461401 L10.0672707,14.3295131 L6.30462829,13.5464697 Z" id="Path-33" fill="#000000" sketch:type="MSShapeGroup"></path>
                <path d="M6.13000285,7.43080628 L13.973164,5.73999023 L16.5493001,6.66736054 L10.0672707,8.05073357 L6.13000285,7.43080628 Z" id="Path-33-Copy" fill="#000000" sketch:type="MSShapeGroup"></path>
                <path d="M1,22.5 C1,22.5 4.5,25.5 8.00000001,22.5 C11.5,25.5 15,22.5 15,22.5 C15,22.5 18.5,25.5 22,22.5 C25.5,25.5 29,22.5 29,22.5" id="Path-40-Copy-9" stroke="#000000" stroke-width="1.3" sketch:type="MSShapeGroup"></path>
                <path d="M6.5,26.5 C6.5,26.5 10.5,29.5 14.5,26.5 C18.5,29.5 22.5,26.5 22.5,26.5" id="Path-40-Copy-8" stroke="#000000" stroke-width="1.3" sketch:type="MSShapeGroup"></path>
            </g>
        </g>
    </g>
</svg>