<?xml version="1.0" encoding="UTF-8" standalone="no"?>
<svg width="25px" height="25px" viewBox="0 0 25 25" version="1.1" xmlns="http://www.w3.org/2000/svg" xmlns:xlink="http://www.w3.org/1999/xlink" xmlns:sketch="http://www.bohemiancoding.com/sketch/ns">
    <!-- Generator: Sketch 3.3.2 (12043) - http://www.bohemiancoding.com/sketch -->
    <title>Artboard 1</title>
    <desc>Created with Sketch.</desc>
    <defs></defs>
    <g id="Page-1" stroke="none" stroke-width="1" fill="none" fill-rule="evenodd" sketch:type="MSPage">
        <g id="Artboard-1" sketch:type="MSArtboardGroup">
            <g id="ac" sketch:type="MSLayerGroup" transform="translate(0.000000, 3.000000)">
                <path d="M0,1.99961498 C0,0.895258123 0.889763236,0 2.00359486,0 L22.9964051,0 C24.10296,0 25,0.88743329 25,1.99961498 L25,8.00038502 C25,9.10474188 24.1102368,10 22.9964051,10 L2.00359486,10 C0.897039974,10 0,9.11256671 0,8.00038502 L0,1.99961498 Z M2,6 L23,6 L23,7 L2,7 L2,6 Z M2,8 L23,8 L23,9 L2,9 L2,8 Z" id="Rectangle-14" fill="#000000" sketch:type="MSShapeGroup"></path>
                <g id="Rectangle-17-+-Path-54-+-Rectangle-17-Copy-+-Path-54-Copy-+-Rectangle-17-+-Path-54-Copy-+-Rectangle-17-Copy-+-Path-54-Copy-Copy" transform="translate(3.000000, 11.000000)" sketch:type="MSShapeGroup">
                    <g id="Rectangle-17-+-Path-54" transform="translate(3.000000, 0.000000)">
                        <rect id="Rectangle-17" fill="#000000" x="2" y="0" width="1" height="5"></rect>
                        <path d="M0,1 L2.5,3.5 L5,1" id="Path-54" stroke="#000000"></path>
                    </g>
                    <g id="Rectangle-17-Copy-+-Path-54-Copy" transform="translate(5.500000, 8.500000) scale(1, -1) translate(-5.500000, -8.500000) translate(3.000000, 6.000000)">
                        <rect id="Rectangle-17-Copy" fill="#000000" x="2" y="0" width="1" height="5"></rect>
                        <path d="M0,1 L2.5,3.5 L5,1" id="Path-54-Copy" stroke="#000000"></path>
                    </g>
                    <g id="Rectangle-17-+-Path-54-Copy-+-Rectangle-17-Copy-+-Path-54-Copy-Copy" transform="translate(5.500000, 5.500000) rotate(-90.000000) translate(-5.500000, -5.500000) translate(3.000000, 0.000000)">
                        <g id="Rectangle-17-+-Path-54-Copy">
                            <rect id="Rectangle-17" fill="#000000" x="2" y="0" width="1" height="5"></rect>
                            <path d="M0,1 L2.5,3.5 L5,1" id="Path-54" stroke="#000000"></path>
                        </g>
                        <g id="Rectangle-17-Copy-+-Path-54-Copy-Copy" transform="translate(2.500000, 8.000000) scale(1, -1) translate(-2.500000, -8.000000) translate(0.000000, 5.000000)">
                            <rect id="Rectangle-17-Copy" fill="#000000" x="2" y="0" width="1" height="6"></rect>
                            <path d="M0,1 L2.5,3.5 L5,1" id="Path-54-Copy" stroke="#000000"></path>
                        </g>
                    </g>
                </g>
                <path d="M20,15 L20,14 L21,14 L21,14 L21,15 L22,15 L22,14 L23,14 L23,13 L22,13 L22,12 L21,12 L21,13 L20,13 L20,13 L20,12 L20,12 L21,12 L21,11 L20,11 L20,10 L19,10 L19,11 L18,11 L18,12 L19,12 L19,13 L18,13 L18,12 L17,12 L17,13 L16,13 L16,14 L17,14 L17,15 L18,15 L18,14 L18,14 L19,14 L19,15 L18,15 L18,16 L19,16 L19,17 L20,17 L20,16 L21,16 L21,15 L20,15 Z" id="Rectangle-21" fill="#000000" sketch:type="MSShapeGroup"></path>
            </g>
        </g>
    </g>
</svg>