<?xml version="1.0" encoding="UTF-8" standalone="no"?>
<svg width="20px" height="25px" viewBox="0 0 20 25" version="1.1" xmlns="http://www.w3.org/2000/svg" xmlns:xlink="http://www.w3.org/1999/xlink" xmlns:sketch="http://www.bohemiancoding.com/sketch/ns">
    <!-- Generator: Sketch 3.3.2 (12043) - http://www.bohemiancoding.com/sketch -->
    <title>Artboard 1</title>
    <desc>Created with Sketch.</desc>
    <defs></defs>
    <g id="Page-1" stroke="none" stroke-width="1" fill="none" fill-rule="evenodd" sketch:type="MSPage">
        <g id="Artboard-1" sketch:type="MSArtboardGroup" fill="#000000">
            <path d="M2.81538998,14.2041251 L2.40095863,12.8884137 L1.44147685,12.8884137 L1.44147685,11 L19.400959,11 L19.400959,12.8884137 L18.400959,12.8884137 L14.900959,24 L5.90095857,24 L5.22008279,21.8383971 L5.22008279,21.8383971 C5.64844563,21.6799015 6.09694023,21.4579749 6.56288791,21.1789046 C7.36424236,20.698949 8.2049447,20.0565091 9.06670163,19.2909392 C9.74201171,18.6910055 10.3922037,18.0496932 10.9945577,17.4084246 C11.2054337,17.1839252 11.3954495,16.9752658 11.5616843,16.787659 C11.6622269,16.6741901 11.7330534,16.5922895 11.7712213,16.547182 L10.9306923,15.8359652 C10.794378,15.9970639 10.5401108,16.2840211 10.1920261,16.6545935 C9.61093259,17.273228 8.98377653,17.891819 8.33543444,18.4677948 C7.52098688,19.1913359 6.73242632,19.7939306 5.99714367,20.2343138 C5.59977556,20.4723097 5.22975678,20.6564295 4.88857491,20.7859461 L3.25008956,15.5841827 C3.19280632,15.6829446 3.13629164,15.7833211 3.08081096,15.8851052 C2.64310629,16.6881123 2.32729454,17.4732498 2.18471435,18.191854 C1.96417068,19.3033942 2.17228444,20.1450987 2.88644149,20.7164244 C3.32528483,21.067499 3.94378707,21.1073454 4.72268047,20.8453825 C5.01425674,21.9101563 4.72268042,20.8453826 5.01425672,21.9101563 C3.92243685,22.2669995 2.96840446,22.192031 2.19861894,21.5762025 C1.12216,20.7150354 0.811145595,19.4571549 1.10471434,17.9775683 C1.27199101,17.1344939 1.62735658,16.2510219 2.11404975,15.3581411 C2.33775732,14.9477302 2.57602499,14.5599499 2.81538998,14.2041251 L2.81538998,14.2041251 Z M13.597196,8.33011358 L14.6541165,9.03472721 C14.6541165,9.03472721 15.6494787,7.31709027 15.7551698,7.38314717 C16.4991715,7.84814825 17.4009587,9.99999986 17.4009587,9.99999986 L3.40095865,9.99999986 C3.40095865,9.99999986 3.64358346,6.83262052 7.49727001,6.83262052 C10.2499033,4.07998734 12.4520099,6.83262052 12.4520099,6.83262052 L13.3242117,6.8326205 L15.4064406,3.96667828 L16.2972114,4.61386118 L13.597196,8.33011358 L13.597196,8.33011358 Z M14.9192647,0.890770833 L15.8100356,1.53795368 L15.1755528,2.43795175 L17.8351652,4.37027319 L18.4823481,3.47950236 L14.9192647,0.890770833 Z M20.0203018,3.23591446 L18.0787531,5.90822696 L13.6248989,2.6723125 L15.5664476,4.88498131e-15 L20.0203018,3.23591446 Z" id="Rectangle-4" sketch:type="MSShapeGroup"></path>
        </g>
    </g>
</svg>