<?xml version="1.0" encoding="UTF-8" standalone="no"?>
<svg width="30px" height="25px" viewBox="0 0 30 25" version="1.1" xmlns="http://www.w3.org/2000/svg" xmlns:xlink="http://www.w3.org/1999/xlink" xmlns:sketch="http://www.bohemiancoding.com/sketch/ns">
    <!-- Generator: Sketch 3.3.2 (12043) - http://www.bohemiancoding.com/sketch -->
    <title>Artboard 1</title>
    <desc>Created with Sketch.</desc>
    <defs></defs>
    <g id="Page-1" stroke="none" stroke-width="1" fill="none" fill-rule="evenodd" sketch:type="MSPage">
        <g id="Artboard-1" sketch:type="MSArtboardGroup">
            <g id="child-pool" sketch:type="MSLayerGroup" transform="translate(0.000000, 1.000000)">
                <path d="M11,16 L11,16 C6.581722,16 3,12.418278 3,8 C3,3.581722 6.581722,0 11,0 C15.418278,0 19,3.581722 19,8 C19,12.418278 15.418278,16 11,16 L11,16 Z M14.6011726,5.48006593 C15.0286493,5.75140855 16.5983157,6.93384513 17.892973,10.3255617 C18.1392373,9.5953632 18.2727273,8.81327073 18.2727273,8 C18.2727273,6.38395134 17.7456341,4.89101187 16.8539871,3.68372082 C15.8953463,3.4953654 15.1739298,3.48518667 14.7959878,3.49979521 C14.744407,3.42631392 14.1036932,2.21779043 12.5694269,2.64458455 C12.5605956,2.21779039 12.4478494,1.34445876 11.7300645,0.763459722 C11.489956,0.739527122 11.2464091,0.727272727 11,0.727272727 C8.80697255,0.727272727 6.84065463,1.69793157 5.50723421,3.23306129 C8.20585078,2.68884798 11.5733622,3.55840145 11.5733622,3.55840145 C11.5733622,3.55840145 11.0982791,4.31627308 11.6005195,5.24511083 C11.0982793,5.52615474 7.9517358,7.3805354 4.61732068,11.4891042 C5.8065251,13.6599237 8.0709587,15.1578698 10.6940891,15.26641 C13.1348037,11.8394891 13.1599201,6.89365945 13.1507503,6.19506481 C14.1161222,6.13441051 14.4998433,5.60906428 14.6011726,5.48006593 Z M13.1818182,6.18181818 C14.1859723,6.18181818 15,5.36779045 15,4.36363636 C15,3.35948227 14.1859723,2.54545455 13.1818182,2.54545455 C12.1776641,2.54545455 11.3636364,3.35948227 11.3636364,4.36363636 C11.3636364,5.36779045 12.1776641,6.18181818 13.1818182,6.18181818 L13.1818182,6.18181818 Z M13.1818182,5.45454545 C12.5793257,5.45454545 12.0909091,4.96612882 12.0909091,4.36363636 C12.0909091,3.76114391 12.5793257,3.27272727 13.1818182,3.27272727 C13.7843106,3.27272727 14.2727273,3.76114391 14.2727273,4.36363636 C14.2727273,4.96612882 13.7843106,5.45454545 13.1818182,5.45454545 L13.1818182,5.45454545 Z" id="Shape" fill="#000000" sketch:type="MSShapeGroup"></path>
                <path d="M1,17.5 C1,17.5 4.5,20.5 8.00000001,17.5 C11.5,20.5 15,17.5 15,17.5 C15,17.5 18.5,20.5 22,17.5 C25.5,20.5 29,17.5 29,17.5" id="Path-40-Copy-7" stroke="#000000" stroke-width="1.3" sketch:type="MSShapeGroup"></path>
                <path d="M6.5,21.5 C6.5,21.5 10.5,24.5 14.5,21.5 C18.5,24.5 22.5,21.5 22.5,21.5" id="Path-40-Copy-6" stroke="#000000" stroke-width="1.3" sketch:type="MSShapeGroup"></path>
            </g>
        </g>
    </g>
</svg>