<?xml version="1.0" encoding="UTF-8" standalone="no"?>
<svg width="22px" height="25px" viewBox="0 0 22 25" version="1.1" xmlns="http://www.w3.org/2000/svg" xmlns:xlink="http://www.w3.org/1999/xlink" xmlns:sketch="http://www.bohemiancoding.com/sketch/ns">
    <!-- Generator: Sketch 3.3.2 (12043) - http://www.bohemiancoding.com/sketch -->
    <title>Artboard 1</title>
    <desc>Created with Sketch.</desc>
    <defs></defs>
    <g id="Page-1" stroke="none" stroke-width="1" fill="none" fill-rule="evenodd" sketch:type="MSPage">
        <g id="Artboard-1" sketch:type="MSArtboardGroup" fill="#000000">
            <path d="M7.46119569,15.9252923 L8.29021743,16.7543141 C9.66378563,15.3807459 11.8907797,15.3807459 13.2643479,16.7543141 L14.0933696,15.9252923 C12.2619454,14.0938681 9.29261996,14.0938681 7.46119569,15.9252923 Z M4.97413046,13.4382271 L5.8031522,14.2672488 C8.5502886,11.5201125 13.0042767,11.5201125 15.7514131,14.2672488 L16.5804349,13.4382271 C13.3754424,10.2332346 8.17912292,10.2332346 4.97413046,13.4382271 Z M2.48706523,10.9511619 L3.31608697,11.7801836 C7.43679157,7.65947902 14.1177738,7.65947902 18.2384784,11.7801836 L19.0675001,10.9511619 C14.4889394,6.37260121 7.06562589,6.37260121 2.48706523,10.9511619 Z M-4.61852778e-14,8.46409665 L0.829021743,9.29311839 C6.32329454,3.79884559 15.2312708,3.79884559 20.7255436,9.29311839 L21.5545653,8.46409665 C15.6024365,2.51196778 5.95212886,2.51196778 -4.61852778e-14,8.46409665 Z M12.0208153,17.9978467 C11.3340312,17.3110626 10.2205341,17.3110626 9.53375005,17.9978467 C8.84696595,18.6846308 8.84696595,19.7981278 9.53375005,20.4849119 C10.2205341,21.171696 11.3340312,21.171696 12.0208153,20.4849119 C12.7075994,19.7981278 12.7075994,18.6846308 12.0208153,17.9978467 Z" id="wifi" sketch:type="MSShapeGroup"></path>
        </g>
    </g>
</svg>