<?xml version="1.0" encoding="UTF-8" standalone="no"?>
<svg width="21px" height="25px" viewBox="0 0 21 25" version="1.1" xmlns="http://www.w3.org/2000/svg" xmlns:xlink="http://www.w3.org/1999/xlink" xmlns:sketch="http://www.bohemiancoding.com/sketch/ns">
    <!-- Generator: Sketch 3.3.2 (12043) - http://www.bohemiancoding.com/sketch -->
    <title>Artboard 1</title>
    <desc>Created with Sketch.</desc>
    <defs></defs>
    <g id="Page-1" stroke="none" stroke-width="1" fill="none" fill-rule="evenodd" sketch:type="MSPage">
        <g id="Artboard-1" sketch:type="MSArtboardGroup" fill="#000000">
            <path d="M8.5,22 C8.5,22 10.5,20.0097376 11,16.0000006 C11.5,11.9902636 11,8.5 11,8.5 C11,8.5 7,10 8,17 C7,17 3.5,14.5 6,8.5 C2.5,10 1.5,14 1.5,14 C1.5,14 -0.5,8.5 6.5,5 C4.5,5 1,6.5 1,6.5 C1,6.5 2,3 5.5,2.5 C9,2 10,3.5 10,3.5 C10,3.5 11,1 15,1 C19,1 21,4.41189089 21,5.5 C17,4.00000012 15,4.50000012 15,4.50000012 C15,4.50000012 22,8.49999964 17,14.4999996 C18,8.99999964 12.5,7.50000012 12.5,7.50000012 C12.5,7.50000012 14.5,10.9999996 14.5,14.4999996 C14.5,17.9999996 13.5,20.5 13.5,20.5 C13.5,20.5 18,21 18,22 C18,23 16.5,24 9.5,24 C2.5,24 0.999999999,24 1,22.5 C1,21 7.5,20.5 7.5,20.5 L8.5,22 Z" id="Path-3" sketch:type="MSShapeGroup"></path>
        </g>
    </g>
</svg>