<?xml version="1.0" encoding="UTF-8" standalone="no"?>
<svg width="180px" height="40px" viewBox="0 0 180 40" version="1.1" xmlns="http://www.w3.org/2000/svg" xmlns:xlink="http://www.w3.org/1999/xlink" xmlns:sketch="http://www.bohemiancoding.com/sketch/ns">
    <!-- Generator: Sketch 3.3.2 (12043) - http://www.bohemiancoding.com/sketch -->
    <title>Fill 1</title>
    <desc>Created with Sketch.</desc>
    <defs></defs>
    <g id="Desktop" stroke="none" stroke-width="1" fill="none" fill-rule="evenodd" sketch:type="MSPage">
        <g id="booking" sketch:type="MSArtboardGroup" transform="translate(-145.000000, -12.000000)" fill="#FFFFFF">
            <g id="header" sketch:type="MSLayerGroup" transform="translate(145.000000, 10.000000)">
                <g id="clicktours-+-beta" sketch:type="MSShapeGroup">
                    <g id="Imported-Layers" transform="translate(0.000000, 2.000000)">
                        <path d="M10.0086344,5.81154185 C11.1996476,5.81154185 11.6143612,6.1739207 11.6143612,7.36493392 L11.6143612,12.026696 L17.5194714,12.026696 C18.7112775,12.026696 19.1251982,12.3890749 19.1251982,13.5808811 L19.1251982,15.9637004 C19.1251982,17.1547137 18.7112775,17.5694273 17.5194714,17.5694273 L11.6143612,17.5694273 L11.6143612,27.9808811 C11.6143612,30.4152423 12.0290749,32.0209692 12.8577093,32.7980617 C13.6348018,33.5751542 15.1889868,33.938326 17.4679295,33.938326 C18.7112775,33.938326 19.1251982,34.3007048 19.1251982,35.5440529 L19.1251982,37.9260793 C19.1251982,39.1694273 18.7112775,39.5318062 17.4679295,39.584141 C13.1170044,39.7395595 10.0601762,38.962467 8.29903084,37.3051982 C6.48634361,35.6479295 5.6061674,32.5911013 5.6061674,28.1878414 L5.6061674,17.5694273 L2.03154185,17.5694273 C0.840528634,17.5694273 0.47814978,17.1547137 0.47814978,15.9637004 L0.47814978,13.5808811 C0.47814978,12.3890749 0.840528634,12.026696 2.03154185,12.026696 L5.6061674,12.026696 L5.6061674,7.36493392 C5.6061674,6.1739207 6.02008811,5.81154185 7.21189427,5.81154185 L10.0086344,5.81154185 Z M36.8325991,11.2503965 C38.0244053,11.2503965 38.438326,11.6119824 38.438326,12.8553304 L38.438326,15.1350661 C38.438326,16.3260793 38.0244053,16.740793 36.8325991,16.740793 L34.9675771,16.740793 C33.0518062,16.740793 31.3937445,16.9477533 30.0473128,17.362467 C29.684141,17.4140088 29.5287225,17.6217621 29.5287225,17.984141 L29.5287225,37.2520705 C29.5287225,38.4438767 29.1655507,38.8585903 27.9745374,38.8585903 L25.1262555,38.8585903 C23.9344493,38.8585903 23.5205286,38.4438767 23.5205286,37.2520705 L23.5205286,15.7567401 C23.5205286,14.0986784 23.8829075,13.4777974 25.5401762,12.8037885 C28.0784141,11.8712775 31.2898678,11.3534802 35.1745374,11.2503965 L36.8325991,11.2503965 Z M51.7511894,11.2503965 C59.1581498,11.2503965 62.8350661,14.8234361 62.8350661,21.9203524 L62.8350661,35.3362996 C62.8350661,37.1505727 62.4219383,37.6675771 60.970837,38.2884581 C58.8980617,39.1694273 55.7904846,39.6356828 51.6473128,39.6356828 C47.2440529,39.6356828 44.2395595,38.962467 42.5822907,37.5637004 C40.9242291,36.2172687 40.0955947,34.0929515 40.0955947,31.2446696 C40.0955947,25.0802643 43.4109251,22.9044053 51.8542731,22.9044053 C52.2174449,22.9044053 53.8739207,23.0090749 56.8260793,23.1637004 L56.8260793,21.7133921 C56.8260793,18.3473128 55.3765639,16.5853744 51.6473128,16.5853744 C49.1090749,16.5853744 47.2955947,17.4140088 46.2076652,19.0720705 C45.4305727,20.159207 45.1720705,20.2630837 43.9810573,19.84837 L41.9090749,18.9681938 C40.7688106,18.4503965 40.4579736,17.673304 41.0273128,16.6369163 C42.8931278,13.0630837 46.4669604,11.2503965 51.7511894,11.2503965 Z M56.8260793,28.0839648 C53.2007048,27.9293392 51.3356828,27.8254626 51.1810573,27.8254626 C47.4518062,27.8254626 46.2076652,28.9133921 46.2076652,31.1923348 C46.2076652,33.5228194 47.2955947,34.6630837 51.0771806,34.6630837 C53.3045815,34.6630837 55.014185,34.5084581 56.257533,34.24837 C56.6199119,34.0929515 56.8260793,33.8859912 56.8260793,33.5228194 L56.8260793,28.0839648 Z M88.7344493,12.026696 C90.3409692,12.026696 90.6518062,12.3890749 90.082467,13.8401762 L80.4988546,37.4598238 C80.1364758,38.4438767 79.4109251,38.9109251 78.3229956,38.9109251 L76.614185,38.9109251 C75.5254626,38.9109251 74.8007048,38.4438767 74.438326,37.4598238 L64.9070485,13.8917181 C64.3377093,12.3890749 64.5962115,12.026696 66.2019383,12.026696 L68.2223789,12.026696 C70.1389427,12.026696 70.6559471,12.338326 71.0714537,13.6324229 L75.8886344,26.0643172 C76.614185,27.9808811 77.0281057,30.2598238 77.2866079,31.1923348 L77.3389427,31.6070485 L77.5974449,31.6070485 C77.5974449,31.6070485 78.2714537,28.3440529 78.9970044,26.115859 L83.7626432,13.6324229 C84.3319824,12.338326 84.746696,12.026696 86.6632599,12.026696 L88.7344493,12.026696 Z M91.489163,22.4389427 C91.489163,15.185815 95.6846696,11.2503965 103.506344,11.2503965 C111.380352,11.2503965 115.471982,15.7051982 115.471982,21.9726872 L115.471982,25.1318062 C115.471982,26.6344493 114.69489,27.359207 113.141498,27.359207 L97.4973568,27.359207 L97.4973568,29.2765639 C97.4973568,32.6434361 99.621674,34.4553304 103.402467,34.4553304 C106.303877,34.4553304 108.322731,33.5228194 109.51533,31.7109251 C110.343965,30.5191189 110.913304,30.4152423 112.156652,31.0884581 L113.970132,32.073304 C115.160352,32.6434361 115.368106,33.4720705 114.591013,34.6630837 C112.571366,37.9784141 108.842115,39.6356828 103.402467,39.6356828 C95.3222907,39.6356828 91.489163,35.3362996 91.489163,28.5510132 L91.489163,22.4389427 Z M109.462996,21.6103084 C109.462996,18.2434361 107.443348,16.3260793 103.506344,16.3260793 C99.621674,16.3260793 97.4973568,18.2434361 97.4973568,21.6103084 L97.4973568,22.7497797 L109.462996,22.7497797 L109.462996,21.6103084 Z M125.364053,37.2520705 C125.364053,38.4438767 124.950132,38.8585903 123.759119,38.8585903 L120.961586,38.8585903 C119.718238,38.8585903 119.355859,38.4438767 119.355859,37.2520705 L119.355859,2.13303965 C119.355859,0.942026432 119.718238,0.527312775 120.961586,0.527312775 L123.759119,0.527312775 C124.950132,0.527312775 125.364053,0.942026432 125.364053,2.13303965 L125.364053,37.2520705 Z M140.748899,11.2503965 C148.156652,11.2503965 151.832775,14.8234361 151.832775,21.9203524 L151.832775,35.3362996 C151.832775,37.1505727 151.419648,37.6675771 149.968546,38.2884581 C147.896564,39.1694273 144.788987,39.6356828 140.645022,39.6356828 C136.241762,39.6356828 133.237269,38.962467 131.580793,37.5637004 C129.922731,36.2172687 129.093304,34.0929515 129.093304,31.2446696 C129.093304,25.0802643 132.408634,22.9044053 140.851982,22.9044053 C141.215154,22.9044053 142.872423,23.0090749 145.823789,23.1637004 L145.823789,21.7133921 C145.823789,18.3473128 144.374273,16.5853744 140.645022,16.5853744 C138.106784,16.5853744 136.293304,17.4140088 135.206167,19.0720705 C134.428282,20.159207 134.16978,20.2630837 132.978767,19.84837 L130.906784,18.9681938 C129.76652,18.4503965 129.456476,17.673304 130.025815,16.6369163 C131.890837,13.0630837 135.46467,11.2503965 140.748899,11.2503965 Z M145.823789,28.0839648 C142.198414,27.9293392 140.334185,27.8254626 140.178767,27.8254626 C136.449515,27.8254626 135.206167,28.9133921 135.206167,31.1923348 C135.206167,33.5228194 136.293304,34.6630837 140.07489,34.6630837 C142.302291,34.6630837 144.011894,34.5084581 145.256035,34.24837 C145.618414,34.0929515 145.823789,33.8859912 145.823789,33.5228194 L145.823789,28.0839648 Z M160.690044,0.527312775 C161.882643,0.527312775 162.245022,0.942026432 162.245022,2.13303965 L162.245022,12.1305727 C164.78326,11.5604405 166.856035,11.2503965 168.460176,11.2503965 C175.660176,11.2503965 179.234802,14.7203524 179.234802,21.6610573 L179.234802,28.6548899 C179.234802,35.9579736 175.350925,39.6356828 167.528458,39.6356828 C163.851542,39.6356828 160.743172,39.0663436 158.153392,37.9784141 C156.494537,37.2013216 156.236035,36.7866079 156.236035,35.1293392 L156.236035,2.13303965 C156.236035,0.942026432 156.651542,0.527312775 157.842555,0.527312775 L160.690044,0.527312775 Z M173.225815,21.8164758 C173.225815,18.5526872 171.259295,16.740793 167.580793,16.740793 C165.871189,16.740793 164.110044,17.050837 162.245022,17.673304 L162.245022,32.9534802 C162.245022,33.2127753 162.400441,33.4197357 162.658943,33.5228194 C163.851542,33.938326 165.301057,34.1460793 167.114537,34.1460793 C171.206167,34.1460793 173.225815,32.2810573 173.225815,28.4986784 L173.225815,21.8164758 L173.225815,21.8164758 Z" id="Fill-1"></path>
                    </g>
                </g>
            </g>
        </g>
    </g>
</svg>