<svg width="389" height="991" xmlns="http://www.w3.org/2000/svg">

 <metadata id="metadata7">image/svg+xml</metadata>
 <g>
  <title>background</title>
  <rect fill="none" id="canvas_background" height="993" width="391" y="-1" x="-1"/>
 </g>
 <g>
  <title>Layer 1</title>
  <g id="layer1">
   <path fill="#888888" id="path2558" d="m124.560962,988.985582c-15.81897,-5.1904 -28.34737,-16.8655 -31.92586,-29.75162c-1.42594,-5.13478 -2.10543,-110.17978 -2.11301,-326.65896l-0.01117,-319.09031l-8.01483,0l-8.01483,0l0,120.45053c0,118.07986 -0.08154,120.59391 -4.14303,127.73631c-5.26073,9.25131 -11.16854,13.58617 -22.73067,16.67855c-17.09376,4.5719 -35.7878,-4.15819 -42.50097,-19.84788c-4.3193,-10.09485 -4.038,-279.33842 0.30928,-296.02878c9.79916,-37.6215 41.53277,-68.44297 78.54331,-76.28567c19.49608,-4.1313 199.75046,-4.18226 219.18913,-0.06196c19.80013,4.19692 36.80657,13.69012 51.85463,28.94588c15.47834,15.69199 22.70364,28.42132 28.09297,49.4934c3.75647,14.68761 3.96364,22.55346 3.96364,150.49169c0,116.94951 -0.41197,135.98001 -3.08199,142.37026c-4.15156,9.9361 -8.42366,14.40454 -17.95694,18.78224c-15.82006,7.2646 -35.92704,2.59108 -45.28163,-10.52495l-4.81104,-6.74554l-0.54573,-122.72704l-0.54575,-122.72704l-7.97001,0l-7.97002,0l0,320.65745c0,351.50044 0.79525,328.16116 -11.62761,341.25024c-9.81312,10.3393 -19.82011,14.2505 -36.46136,14.2505c-16.64124,0 -26.64824,-3.9112 -36.46135,-14.2505c-12.18104,-12.83429 -11.62761,-2.8865 -11.62761,-209.0056l0,-188.41279l-8.01483,0l-8.01483,0l0,188.41279c0,153.54409 -0.50003,189.60605 -2.70192,194.86049c-4.03669,9.63291 -12.81825,19.13041 -22.03661,23.83331c-8.88472,4.5326 -29.05582,6.6393 -37.38936,3.905zm45.07022,-825.26142c-24.22231,-8.65142 -39.193,-21.98708 -49.78959,-44.35181c-5.8651,-12.37867 -6.28804,-14.75664 -6.28804,-35.35422c0,-20.84191 0.36411,-22.82253 6.47924,-35.24412c30.5436,-62.04286 118.72329,-62.19497 149.21506,-0.2574c6.31342,12.82437 6.60596,14.44092 6.60596,36.50338c0,21.21804 -0.45292,24.00705 -5.60092,34.49028c-8.64792,17.61029 -21.42101,30.45108 -38.86769,39.0737c-13.5458,6.69469 -16.9855,7.52828 -33.40502,8.0955c-13.77794,0.47595 -20.7882,-0.25485 -28.349,-2.95531z"/>
  </g>
 </g>
</svg>